<svg width="100" height="100" viewBox="0 0 100 100" fill="none" xmlns="http://www.w3.org/2000/svg">
<path d="M51.9454 67.6777C48.0995 71.174 43.1995 73.555 37.865 74.5196C32.5305 75.4843 27.0012 74.9892 21.9762 73.097C16.9512 71.2048 12.6563 68.0005 9.63459 63.8893C6.61285 59.778 5 54.9445 5 50C5 45.0555 6.61285 40.222 9.63458 36.1107C12.6563 31.9995 16.9512 28.7952 21.9762 26.903C27.0012 25.0108 32.5305 24.5157 37.865 25.4804C43.1995 26.445 48.0995 28.826 51.9454 32.3223L32.5 50L51.9454 67.6777Z" fill="url(#paint0_angular_819_62)" fill-opacity="0.5"/>
<path d="M11.9102 48.8789V56.4375H10.8203V47.6602H11.8164L11.9102 48.8789ZM16.1816 50.7773V50.9004C16.1816 51.3613 16.127 51.7891 16.0176 52.1836C15.9082 52.5742 15.748 52.9141 15.5371 53.2031C15.3301 53.4922 15.0742 53.7168 14.7695 53.877C14.4648 54.0371 14.1152 54.1172 13.7207 54.1172C13.3184 54.1172 12.9629 54.0508 12.6543 53.918C12.3457 53.7852 12.084 53.5918 11.8691 53.3379C11.6543 53.084 11.4824 52.7793 11.3535 52.4238C11.2285 52.0684 11.1426 51.668 11.0957 51.2227V50.5664C11.1426 50.0977 11.2305 49.6777 11.3594 49.3066C11.4883 48.9355 11.6582 48.6191 11.8691 48.3574C12.084 48.0918 12.3438 47.8906 12.6484 47.7539C12.9531 47.6133 13.3047 47.543 13.7031 47.543C14.1016 47.543 14.4551 47.6211 14.7637 47.7773C15.0723 47.9297 15.332 48.1484 15.543 48.4336C15.7539 48.7188 15.9121 49.0605 16.0176 49.459C16.127 49.8535 16.1816 50.293 16.1816 50.7773ZM15.0918 50.9004V50.7773C15.0918 50.4609 15.0586 50.1641 14.9922 49.8867C14.9258 49.6055 14.8223 49.3594 14.6816 49.1484C14.5449 48.9336 14.3691 48.7656 14.1543 48.6445C13.9395 48.5195 13.6836 48.457 13.3867 48.457C13.1133 48.457 12.875 48.5039 12.6719 48.5977C12.4727 48.6914 12.3027 48.8184 12.1621 48.9785C12.0215 49.1348 11.9062 49.3145 11.8164 49.5176C11.7305 49.7168 11.666 49.9238 11.623 50.1387V51.6562C11.7012 51.9297 11.8105 52.1875 11.9512 52.4297C12.0918 52.668 12.2793 52.8613 12.5137 53.0098C12.748 53.1543 13.043 53.2266 13.3984 53.2266C13.6914 53.2266 13.9434 53.166 14.1543 53.0449C14.3691 52.9199 14.5449 52.75 14.6816 52.5352C14.8223 52.3203 14.9258 52.0742 14.9922 51.7969C15.0586 51.5156 15.0918 51.2168 15.0918 50.9004ZM17.2773 50.9004V50.7656C17.2773 50.3086 17.3438 49.8848 17.4766 49.4941C17.6094 49.0996 17.8008 48.7578 18.0508 48.4688C18.3008 48.1758 18.6035 47.9492 18.959 47.7891C19.3145 47.625 19.7129 47.543 20.1543 47.543C20.5996 47.543 21 47.625 21.3555 47.7891C21.7148 47.9492 22.0195 48.1758 22.2695 48.4688C22.5234 48.7578 22.7168 49.0996 22.8496 49.4941C22.9824 49.8848 23.0488 50.3086 23.0488 50.7656V50.9004C23.0488 51.3574 22.9824 51.7812 22.8496 52.1719C22.7168 52.5625 22.5234 52.9043 22.2695 53.1973C22.0195 53.4863 21.7168 53.7129 21.3613 53.877C21.0098 54.0371 20.6113 54.1172 20.166 54.1172C19.7207 54.1172 19.3203 54.0371 18.9648 53.877C18.6094 53.7129 18.3047 53.4863 18.0508 53.1973C17.8008 52.9043 17.6094 52.5625 17.4766 52.1719C17.3438 51.7812 17.2773 51.3574 17.2773 50.9004ZM18.3613 50.7656V50.9004C18.3613 51.2168 18.3984 51.5156 18.4727 51.7969C18.5469 52.0742 18.6582 52.3203 18.8066 52.5352C18.959 52.75 19.1484 52.9199 19.375 53.0449C19.6016 53.166 19.8652 53.2266 20.166 53.2266C20.4629 53.2266 20.7227 53.166 20.9453 53.0449C21.1719 52.9199 21.3594 52.75 21.5078 52.5352C21.6562 52.3203 21.7676 52.0742 21.8418 51.7969C21.9199 51.5156 21.959 51.2168 21.959 50.9004V50.7656C21.959 50.4531 21.9199 50.1582 21.8418 49.8809C21.7676 49.5996 21.6543 49.3516 21.502 49.1367C21.3535 48.918 21.166 48.7461 20.9395 48.6211C20.7168 48.4961 20.4551 48.4336 20.1543 48.4336C19.8574 48.4336 19.5957 48.4961 19.3691 48.6211C19.1465 48.7461 18.959 48.918 18.8066 49.1367C18.6582 49.3516 18.5469 49.5996 18.4727 49.8809C18.3984 50.1582 18.3613 50.4531 18.3613 50.7656ZM25.5859 45V54H24.4961V45H25.5859ZM29.1074 53.3438L30.8711 47.6602H32.0312L29.4883 54.9785C29.4297 55.1348 29.3516 55.3027 29.2539 55.4824C29.1602 55.666 29.0391 55.8398 28.8906 56.0039C28.7422 56.168 28.5625 56.3008 28.3516 56.4023C28.1445 56.5078 27.8965 56.5605 27.6074 56.5605C27.5215 56.5605 27.4121 56.5488 27.2793 56.5254C27.1465 56.502 27.0527 56.4824 26.998 56.4668L26.9922 55.5879C27.0234 55.5918 27.0723 55.5957 27.1387 55.5996C27.209 55.6074 27.2578 55.6113 27.2852 55.6113C27.5312 55.6113 27.7402 55.5781 27.9121 55.5117C28.084 55.4492 28.2285 55.3418 28.3457 55.1895C28.4668 55.041 28.5703 54.8359 28.6562 54.5742L29.1074 53.3438ZM27.8125 47.6602L29.459 52.582L29.7402 53.7246L28.9609 54.123L26.6289 47.6602H27.8125Z" fill="#FF0071"/>
<path d="M37.5371 51.8438C37.5371 51.6445 37.5059 51.4688 37.4434 51.3164C37.3848 51.1602 37.2793 51.0195 37.127 50.8945C36.9785 50.7695 36.7715 50.6504 36.5059 50.5371C36.2441 50.4238 35.9121 50.3086 35.5098 50.1914C35.0879 50.0664 34.707 49.9277 34.3672 49.7754C34.0273 49.6191 33.7363 49.4414 33.4941 49.2422C33.252 49.043 33.0664 48.8145 32.9375 48.5566C32.8086 48.2988 32.7441 48.0039 32.7441 47.6719C32.7441 47.3398 32.8125 47.0332 32.9492 46.752C33.0859 46.4707 33.2812 46.2266 33.5352 46.0195C33.793 45.8086 34.0996 45.6445 34.4551 45.5273C34.8105 45.4102 35.207 45.3516 35.6445 45.3516C36.2852 45.3516 36.8281 45.4746 37.2734 45.7207C37.7227 45.9629 38.0645 46.2812 38.2988 46.6758C38.5332 47.0664 38.6504 47.4844 38.6504 47.9297H37.5254C37.5254 47.6094 37.457 47.3262 37.3203 47.0801C37.1836 46.8301 36.9766 46.6348 36.6992 46.4941C36.4219 46.3496 36.0703 46.2773 35.6445 46.2773C35.2422 46.2773 34.9102 46.3379 34.6484 46.459C34.3867 46.5801 34.1914 46.7441 34.0625 46.9512C33.9375 47.1582 33.875 47.3945 33.875 47.6602C33.875 47.8398 33.9121 48.0039 33.9863 48.1523C34.0645 48.2969 34.1836 48.4316 34.3438 48.5566C34.5078 48.6816 34.7148 48.7969 34.9648 48.9023C35.2188 49.0078 35.5215 49.1094 35.873 49.207C36.3574 49.3438 36.7754 49.4961 37.127 49.6641C37.4785 49.832 37.7676 50.0215 37.9941 50.2324C38.2246 50.4395 38.3945 50.6758 38.5039 50.9414C38.6172 51.2031 38.6738 51.5 38.6738 51.832C38.6738 52.1797 38.6035 52.4941 38.4629 52.7754C38.3223 53.0566 38.1211 53.2969 37.8594 53.4961C37.5977 53.6953 37.2832 53.8496 36.916 53.959C36.5527 54.0645 36.1465 54.1172 35.6973 54.1172C35.3027 54.1172 34.9141 54.0625 34.5312 53.9531C34.1523 53.8438 33.8066 53.6797 33.4941 53.4609C33.1855 53.2422 32.9375 52.9727 32.75 52.6523C32.5664 52.3281 32.4746 51.9531 32.4746 51.5273H33.5996C33.5996 51.8203 33.6562 52.0723 33.7695 52.2832C33.8828 52.4902 34.0371 52.6621 34.2324 52.7988C34.4316 52.9355 34.6562 53.0371 34.9062 53.1035C35.1602 53.166 35.4238 53.1973 35.6973 53.1973C36.0918 53.1973 36.4258 53.1426 36.6992 53.0332C36.9727 52.9238 37.1797 52.7676 37.3203 52.5645C37.4648 52.3613 37.5371 52.1211 37.5371 51.8438ZM42.6055 47.6602V48.4922H39.1777V47.6602H42.6055ZM40.3379 46.1191H41.4219V52.4297C41.4219 52.6445 41.4551 52.8066 41.5215 52.916C41.5879 53.0254 41.6738 53.0977 41.7793 53.1328C41.8848 53.168 41.998 53.1855 42.1191 53.1855C42.209 53.1855 42.3027 53.1777 42.4004 53.1621C42.502 53.1426 42.5781 53.127 42.6289 53.1152L42.6348 54C42.5488 54.0273 42.4355 54.0527 42.2949 54.0762C42.1582 54.1035 41.9922 54.1172 41.7969 54.1172C41.5312 54.1172 41.2871 54.0645 41.0645 53.959C40.8418 53.8535 40.6641 53.6777 40.5312 53.4316C40.4023 53.1816 40.3379 52.8457 40.3379 52.4238V46.1191ZM43.4727 50.9004V50.7656C43.4727 50.3086 43.5391 49.8848 43.6719 49.4941C43.8047 49.0996 43.9961 48.7578 44.2461 48.4688C44.4961 48.1758 44.7988 47.9492 45.1543 47.7891C45.5098 47.625 45.9082 47.543 46.3496 47.543C46.7949 47.543 47.1953 47.625 47.5508 47.7891C47.9102 47.9492 48.2148 48.1758 48.4648 48.4688C48.7188 48.7578 48.9121 49.0996 49.0449 49.4941C49.1777 49.8848 49.2441 50.3086 49.2441 50.7656V50.9004C49.2441 51.3574 49.1777 51.7812 49.0449 52.1719C48.9121 52.5625 48.7188 52.9043 48.4648 53.1973C48.2148 53.4863 47.9121 53.7129 47.5566 53.877C47.2051 54.0371 46.8066 54.1172 46.3613 54.1172C45.916 54.1172 45.5156 54.0371 45.1602 53.877C44.8047 53.7129 44.5 53.4863 44.2461 53.1973C43.9961 52.9043 43.8047 52.5625 43.6719 52.1719C43.5391 51.7812 43.4727 51.3574 43.4727 50.9004ZM44.5566 50.7656V50.9004C44.5566 51.2168 44.5938 51.5156 44.668 51.7969C44.7422 52.0742 44.8535 52.3203 45.002 52.5352C45.1543 52.75 45.3438 52.9199 45.5703 53.0449C45.7969 53.166 46.0605 53.2266 46.3613 53.2266C46.6582 53.2266 46.918 53.166 47.1406 53.0449C47.3672 52.9199 47.5547 52.75 47.7031 52.5352C47.8516 52.3203 47.9629 52.0742 48.0371 51.7969C48.1152 51.5156 48.1543 51.2168 48.1543 50.9004V50.7656C48.1543 50.4531 48.1152 50.1582 48.0371 49.8809C47.9629 49.5996 47.8496 49.3516 47.6973 49.1367C47.5488 48.918 47.3613 48.7461 47.1348 48.6211C46.9121 48.4961 46.6504 48.4336 46.3496 48.4336C46.0527 48.4336 45.791 48.4961 45.5645 48.6211C45.3418 48.7461 45.1543 48.918 45.002 49.1367C44.8535 49.3516 44.7422 49.5996 44.668 49.8809C44.5938 50.1582 44.5566 50.4531 44.5566 50.7656ZM51.6875 48.6562V54H50.6035V47.6602H51.6582L51.6875 48.6562ZM53.668 47.625L53.6621 48.6328C53.5723 48.6133 53.4863 48.6016 53.4043 48.5977C53.3262 48.5898 53.2363 48.5859 53.1348 48.5859C52.8848 48.5859 52.6641 48.625 52.4727 48.7031C52.2812 48.7812 52.1191 48.8906 51.9863 49.0312C51.8535 49.1719 51.748 49.3398 51.6699 49.5352C51.5957 49.7266 51.5469 49.9375 51.5234 50.168L51.2188 50.3438C51.2188 49.9609 51.2559 49.6016 51.3301 49.2656C51.4082 48.9297 51.5273 48.6328 51.6875 48.375C51.8477 48.1133 52.0508 47.9102 52.2969 47.7656C52.5469 47.6172 52.8438 47.543 53.1875 47.543C53.2656 47.543 53.3555 47.5527 53.457 47.5723C53.5586 47.5879 53.6289 47.6055 53.668 47.625ZM57.1836 54.1172C56.7422 54.1172 56.3418 54.043 55.9824 53.8945C55.627 53.7422 55.3203 53.5293 55.0625 53.2559C54.8086 52.9824 54.6133 52.6582 54.4766 52.2832C54.3398 51.9082 54.2715 51.498 54.2715 51.0527V50.8066C54.2715 50.291 54.3477 49.832 54.5 49.4297C54.6523 49.0234 54.8594 48.6797 55.1211 48.3984C55.3828 48.1172 55.6797 47.9043 56.0117 47.7598C56.3438 47.6152 56.6875 47.543 57.043 47.543C57.4961 47.543 57.8867 47.6211 58.2148 47.7773C58.5469 47.9336 58.8184 48.1523 59.0293 48.4336C59.2402 48.7109 59.3965 49.0391 59.498 49.418C59.5996 49.793 59.6504 50.2031 59.6504 50.6484V51.1348H54.916V50.25H58.5664V50.168C58.5508 49.8867 58.4922 49.6133 58.3906 49.3477C58.293 49.082 58.1367 48.8633 57.9219 48.6914C57.707 48.5195 57.4141 48.4336 57.043 48.4336C56.7969 48.4336 56.5703 48.4863 56.3633 48.5918C56.1562 48.6934 55.9785 48.8457 55.8301 49.0488C55.6816 49.252 55.5664 49.5 55.4844 49.793C55.4023 50.0859 55.3613 50.4238 55.3613 50.8066V51.0527C55.3613 51.3535 55.4023 51.6367 55.4844 51.9023C55.5703 52.1641 55.6934 52.3945 55.8535 52.5938C56.0176 52.793 56.2148 52.9492 56.4453 53.0625C56.6797 53.1758 56.9453 53.2324 57.2422 53.2324C57.625 53.2324 57.9492 53.1543 58.2148 52.998C58.4805 52.8418 58.7129 52.6328 58.9121 52.3711L59.5684 52.8926C59.4316 53.0996 59.2578 53.2969 59.0469 53.4844C58.8359 53.6719 58.5762 53.8242 58.2676 53.9414C57.9629 54.0586 57.6016 54.1172 57.1836 54.1172Z" fill="#1600FF"/>
<defs>
<radialGradient id="paint0_angular_819_62" cx="0" cy="0" r="1" gradientUnits="userSpaceOnUse" gradientTransform="translate(32.5 50) rotate(90) scale(25 27.5)">
<stop offset="0.0217977" stop-color="#C941B6"/>
<stop offset="0.241077" stop-color="#1600FF"/>
<stop offset="0.674711" stop-color="#1600FF" stop-opacity="0.622018"/>
</radialGradient>
</defs>
</svg>
